# Tiled2Unity generated file. Do not modify by hand.
# Wavefront file for 'Level_03_mesh_0001.obj'

# Vertices (Count = 180)
v -960 -704 0
v -976 -704 0
v -976 -688 0
v -960 -688 0
v -976 -704 0
v -992 -704 0
v -992 -688 0
v -976 -688 0
v -992 -704 0
v -1008 -704 0
v -1008 -688 0
v -992 -688 0
v -1008 -704 0
v -1024 -704 0
v -1024 -688 0
v -1008 -688 0
v -992 -720 0
v -1008 -720 0
v -1008 -704 0
v -992 -704 0
v -912 -736 0
v -928 -736 0
v -928 -720 0
v -912 -720 0
v -928 -736 0
v -944 -736 0
v -944 -720 0
v -928 -720 0
v -944 -736 0
v -960 -736 0
v -960 -720 0
v -944 -720 0
v -960 -736 0
v -976 -736 0
v -976 -720 0
v -960 -720 0
v -944 -752 0
v -960 -752 0
v -960 -736 0
v -944 -736 0
v -864 -768 0
v -880 -768 0
v -880 -752 0
v -864 -752 0
v -880 -768 0
v -896 -768 0
v -896 -752 0
v -880 -752 0
v -896 -768 0
v -912 -768 0
v -912 -752 0
v -896 -752 0
v -912 -768 0
v -928 -768 0
v -928 -752 0
v -912 -752 0
v -896 -784 0
v -912 -784 0
v -912 -768 0
v -896 -768 0
v -816 -800 0
v -832 -800 0
v -832 -784 0
v -816 -784 0
v -832 -800 0
v -848 -800 0
v -848 -784 0
v -832 -784 0
v -848 -800 0
v -864 -800 0
v -864 -784 0
v -848 -784 0
v -864 -800 0
v -880 -800 0
v -880 -784 0
v -864 -784 0
v -848 -816 0
v -864 -816 0
v -864 -800 0
v -848 -800 0
v -768 -832 0
v -784 -832 0
v -784 -816 0
v -768 -816 0
v -784 -832 0
v -800 -832 0
v -800 -816 0
v -784 -816 0
v -800 -832 0
v -816 -832 0
v -816 -816 0
v -800 -816 0
v -816 -832 0
v -832 -832 0
v -832 -816 0
v -816 -816 0
v -800 -848 0
v -816 -848 0
v -816 -832 0
v -800 -832 0
v -720 -864 0
v -736 -864 0
v -736 -848 0
v -720 -848 0
v -736 -864 0
v -752 -864 0
v -752 -848 0
v -736 -848 0
v -752 -864 0
v -768 -864 0
v -768 -848 0
v -752 -848 0
v -768 -864 0
v -784 -864 0
v -784 -848 0
v -768 -848 0
v -752 -880 0
v -768 -880 0
v -768 -864 0
v -752 -864 0
v -672 -896 0
v -688 -896 0
v -688 -880 0
v -672 -880 0
v -688 -896 0
v -704 -896 0
v -704 -880 0
v -688 -880 0
v -704 -896 0
v -720 -896 0
v -720 -880 0
v -704 -880 0
v -720 -896 0
v -736 -896 0
v -736 -880 0
v -720 -880 0
v -704 -912 0
v -720 -912 0
v -720 -896 0
v -704 -896 0
v -624 -928 0
v -640 -928 0
v -640 -912 0
v -624 -912 0
v -640 -928 0
v -656 -928 0
v -656 -912 0
v -640 -912 0
v -656 -928 0
v -672 -928 0
v -672 -912 0
v -656 -912 0
v -672 -928 0
v -688 -928 0
v -688 -912 0
v -672 -912 0
v -656 -944 0
v -672 -944 0
v -672 -928 0
v -656 -928 0
v -576 -960 0
v -592 -960 0
v -592 -944 0
v -576 -944 0
v -592 -960 0
v -608 -960 0
v -608 -944 0
v -592 -944 0
v -608 -960 0
v -624 -960 0
v -624 -944 0
v -608 -944 0
v -624 -960 0
v -640 -960 0
v -640 -944 0
v -624 -944 0
v -608 -976 0
v -624 -976 0
v -624 -960 0
v -608 -960 0

# Texture cooridinates (Count = 12)
vt 0.12 0.9130435
vt 0.16 0.9130435
vt 0.16 0.9565217
vt 0.12 0.9565217
vt 0.76 0.3478261
vt 0.8 0.3478261
vt 0.8 0.3913043
vt 0.76 0.3913043
vt 0.44 0.3478261
vt 0.48 0.3478261
vt 0.48 0.3913043
vt 0.44 0.3913043

# Normal
vn 0 0 -1

# Mesh description
g Level_03_mesh_0001

# Faces
f 1/1/1 2/2/1 3/3/1 4/4/1
f 5/1/1 6/2/1 7/3/1 8/4/1
f 9/1/1 10/2/1 11/3/1 12/4/1
f 13/5/1 14/6/1 15/7/1 16/8/1
f 17/9/1 18/10/1 19/11/1 20/12/1
f 21/1/1 22/2/1 23/3/1 24/4/1
f 25/1/1 26/2/1 27/3/1 28/4/1
f 29/1/1 30/2/1 31/3/1 32/4/1
f 33/5/1 34/6/1 35/7/1 36/8/1
f 37/9/1 38/10/1 39/11/1 40/12/1
f 41/1/1 42/2/1 43/3/1 44/4/1
f 45/1/1 46/2/1 47/3/1 48/4/1
f 49/1/1 50/2/1 51/3/1 52/4/1
f 53/5/1 54/6/1 55/7/1 56/8/1
f 57/9/1 58/10/1 59/11/1 60/12/1
f 61/1/1 62/2/1 63/3/1 64/4/1
f 65/1/1 66/2/1 67/3/1 68/4/1
f 69/1/1 70/2/1 71/3/1 72/4/1
f 73/5/1 74/6/1 75/7/1 76/8/1
f 77/9/1 78/10/1 79/11/1 80/12/1
f 81/1/1 82/2/1 83/3/1 84/4/1
f 85/1/1 86/2/1 87/3/1 88/4/1
f 89/1/1 90/2/1 91/3/1 92/4/1
f 93/5/1 94/6/1 95/7/1 96/8/1
f 97/9/1 98/10/1 99/11/1 100/12/1
f 101/1/1 102/2/1 103/3/1 104/4/1
f 105/1/1 106/2/1 107/3/1 108/4/1
f 109/1/1 110/2/1 111/3/1 112/4/1
f 113/5/1 114/6/1 115/7/1 116/8/1
f 117/9/1 118/10/1 119/11/1 120/12/1
f 121/1/1 122/2/1 123/3/1 124/4/1
f 125/1/1 126/2/1 127/3/1 128/4/1
f 129/1/1 130/2/1 131/3/1 132/4/1
f 133/5/1 134/6/1 135/7/1 136/8/1
f 137/9/1 138/10/1 139/11/1 140/12/1
f 141/1/1 142/2/1 143/3/1 144/4/1
f 145/1/1 146/2/1 147/3/1 148/4/1
f 149/1/1 150/2/1 151/3/1 152/4/1
f 153/5/1 154/6/1 155/7/1 156/8/1
f 157/9/1 158/10/1 159/11/1 160/12/1
f 161/1/1 162/2/1 163/3/1 164/4/1
f 165/1/1 166/2/1 167/3/1 168/4/1
f 169/1/1 170/2/1 171/3/1 172/4/1
f 173/5/1 174/6/1 175/7/1 176/8/1
f 177/9/1 178/10/1 179/11/1 180/12/1

